# xmcd CD database file
#
# Track frame offsets:
#	150
#	6801
#	23465
#	46812
#	74870
#	97247
#	101012
#	113387
#	124262
#	136779
#	153590
#	168961
#	181998
#	193676
#	210201
#	227130
#	231957
#	257481
#	270270
#	286827
#	312821
#	324764
#
# Disc length: 4346 seconds
#
# Revision: 0
# Processed by: cddbd v1.5.2PL0 Copyright (c) Steve Scherf et al.
# Submitted via: CDex 1.51
#
DISCID=1e10f816
DTITLE=Hobo Blues Band - Vadászat
DYEAR=1992
DGENRE=Blues
TTITLE0=Prológus
TTITLE1=A hajtók dala
TTITLE2=A vadászok gyülekezõje
TTITLE3=Mesél az erdõ
TTITLE4=Fut a nyúl a mezõn
TTITLE5=A kerítés mögött fegyveresek
TTITLE6=A vészbanyák dala
TTITLE7=A királyfi vágtat a réten
TTITLE8=Ott fogsz majd sírni ahol senki sem lát
TTITLE9=A fattyú reménytelen szerelme és halála
TTITLE10=A remete története
TTITLE11=A számûzött lovag
TTITLE12=A vadászok kara
TTITLE13=Az üldözés rövid, de véres
TTITLE14=A zsákmány terítéken, szépen elrendezve
TTITLE15=A vak zenészek kara lassan lépked a fûben
TTITLE16=A vadászok bevonulása és az ünnepség kezdete
TTITLE17=A lakoma
TTITLE18=A vendégsereg tánca
TTITLE19=Az orgia
TTITLE20=A bolond levele a kisfiúnak
TTITLE21=Ez elment vadászni
EXTD=YEAR: 1992
EXTT0=
EXTT1=
EXTT2=
EXTT3=
EXTT4=
EXTT5=
EXTT6=
EXTT7=
EXTT8=
EXTT9=
EXTT10=
EXTT11=
EXTT12=
EXTT13=
EXTT14=
EXTT15=
EXTT16=
EXTT17=
EXTT18=
EXTT19=
EXTT20=
EXTT21=
PLAYORDER=
